<svg xmlns="http://www.w3.org/2000/svg" xmlns:xlink="http://www.w3.org/1999/xlink" width="600" height="480" viewBox="0 0 600 480"><title>Gnuplot</title><desc>Produced by GNUPLOT 5.0 patchlevel 6</desc><g id="gnuplot_canvas"><rect width="600" height="480" x="0" y="0" fill="none"/><defs><circle id="gpDot" r=".5" stroke-width=".5"/><path id="gpPt0" stroke="currentColor" stroke-width=".222" d="M-1,0 h2 M0,-1 v2"/><path id="gpPt1" stroke="currentColor" stroke-width=".222" d="M-1,-1 L1,1 M1,-1 L-1,1"/><path id="gpPt2" stroke="currentColor" stroke-width=".222" d="M-1,0 L1,0 M0,-1 L0,1 M-1,-1 L1,1 M-1,1 L1,-1"/><rect id="gpPt3" width="2" height="2" x="-1" y="-1" stroke="currentColor" stroke-width=".222"/><rect id="gpPt4" width="2" height="2" x="-1" y="-1" fill="currentColor" stroke="currentColor" stroke-width=".222"/><circle id="gpPt5" cx="0" cy="0" r="1" stroke="currentColor" stroke-width=".222"/><use id="gpPt6" fill="currentColor" stroke="none" xlink:href="#gpPt5"/><path id="gpPt7" stroke="currentColor" stroke-width=".222" d="M0,-1.33 L-1.33,0.67 L1.33,0.67 z"/><use id="gpPt8" fill="currentColor" stroke="none" xlink:href="#gpPt7"/><use id="gpPt9" stroke="currentColor" transform="rotate(180)" xlink:href="#gpPt7"/><use id="gpPt10" fill="currentColor" stroke="none" xlink:href="#gpPt9"/><use id="gpPt11" stroke="currentColor" transform="rotate(45)" xlink:href="#gpPt3"/><use id="gpPt12" fill="currentColor" stroke="none" xlink:href="#gpPt11"/><path id="gpPt13" stroke="currentColor" stroke-width=".222" d="M0,1.330 L1.265,0.411 L0.782,-1.067 L-0.782,-1.076 L-1.265,0.411 z"/><use id="gpPt14" fill="currentColor" stroke="none" xlink:href="#gpPt13"/><filter id="textbox" width="1" height="1" x="0" y="0" filterUnits="objectBoundingBox"><feFlood flood-color="#fff" flood-opacity="1" result="bgnd"/><feComposite in="SourceGraphic" in2="bgnd" operator="atop"/></filter><filter id="greybox" width="1" height="1" x="0" y="0" filterUnits="objectBoundingBox"><feFlood flood-color="#d3d3d3" flood-opacity="1" result="grey"/><feComposite in="SourceGraphic" in2="grey" operator="atop"/></filter></defs><g fill="none" stroke="currentColor" stroke-linecap="butt" stroke-linejoin="miter" stroke-width="1" color="gray"><path stroke="gray" stroke-dasharray="2 4" d="M80.2,422.4 L575.0,422.4" class="gridline"/></g><g fill="none" stroke="currentColor" stroke-linecap="butt" stroke-linejoin="miter" stroke-width="1" color="#000"><path stroke="gray" d="M80.2,422.4 L89.2,422.4"/><g fill="gray" stroke="none" font-family="Arial" font-size="12" text-anchor="end"><text transform="translate(71.9,426.3)"><tspan font-family="Arial">0</tspan></text></g></g><g fill="none" stroke="currentColor" stroke-linecap="butt" stroke-linejoin="miter" stroke-width="1" color="gray"><path stroke="gray" stroke-dasharray="2 4" d="M80.2,381.8 L575.0,381.8" class="gridline"/></g><g fill="none" stroke="currentColor" stroke-linecap="butt" stroke-linejoin="miter" stroke-width="1" color="#000"><path stroke="gray" d="M80.2,381.8 L89.2,381.8"/><g fill="gray" stroke="none" font-family="Arial" font-size="12" text-anchor="end"><text transform="translate(71.9,385.7)"><tspan font-family="Arial">200</tspan></text></g></g><g fill="none" stroke="currentColor" stroke-linecap="butt" stroke-linejoin="miter" stroke-width="1" color="gray"><path stroke="gray" stroke-dasharray="2 4" d="M80.2,341.3 L575.0,341.3" class="gridline"/></g><g fill="none" stroke="currentColor" stroke-linecap="butt" stroke-linejoin="miter" stroke-width="1" color="#000"><path stroke="gray" d="M80.2,341.3 L89.2,341.3"/><g fill="gray" stroke="none" font-family="Arial" font-size="12" text-anchor="end"><text transform="translate(71.9,345.2)"><tspan font-family="Arial">400</tspan></text></g></g><g fill="none" stroke="currentColor" stroke-linecap="butt" stroke-linejoin="miter" stroke-width="1" color="gray"><path stroke="gray" stroke-dasharray="2 4" d="M80.2,300.7 L575.0,300.7" class="gridline"/></g><g fill="none" stroke="currentColor" stroke-linecap="butt" stroke-linejoin="miter" stroke-width="1" color="#000"><path stroke="gray" d="M80.2,300.7 L89.2,300.7"/><g fill="gray" stroke="none" font-family="Arial" font-size="12" text-anchor="end"><text transform="translate(71.9,304.6)"><tspan font-family="Arial">600</tspan></text></g></g><g fill="none" stroke="currentColor" stroke-linecap="butt" stroke-linejoin="miter" stroke-width="1" color="gray"><path stroke="gray" stroke-dasharray="2 4" d="M80.2,260.1 L575.0,260.1" class="gridline"/></g><g fill="none" stroke="currentColor" stroke-linecap="butt" stroke-linejoin="miter" stroke-width="1" color="#000"><path stroke="gray" d="M80.2,260.1 L89.2,260.1"/><g fill="gray" stroke="none" font-family="Arial" font-size="12" text-anchor="end"><text transform="translate(71.9,264.0)"><tspan font-family="Arial">800</tspan></text></g></g><g fill="none" stroke="currentColor" stroke-linecap="butt" stroke-linejoin="miter" stroke-width="1" color="gray"><path stroke="gray" stroke-dasharray="2 4" d="M80.2,219.5 L575.0,219.5" class="gridline"/></g><g fill="none" stroke="currentColor" stroke-linecap="butt" stroke-linejoin="miter" stroke-width="1" color="#000"><path stroke="gray" d="M80.2,219.5 L89.2,219.5"/><g fill="gray" stroke="none" font-family="Arial" font-size="12" text-anchor="end"><text transform="translate(71.9,223.4)"><tspan font-family="Arial">1000</tspan></text></g></g><g fill="none" stroke="currentColor" stroke-linecap="butt" stroke-linejoin="miter" stroke-width="1" color="gray"><path stroke="gray" stroke-dasharray="2 4" d="M80.2,179.0 L575.0,179.0" class="gridline"/></g><g fill="none" stroke="currentColor" stroke-linecap="butt" stroke-linejoin="miter" stroke-width="1" color="#000"><path stroke="gray" d="M80.2,179.0 L89.2,179.0"/><g fill="gray" stroke="none" font-family="Arial" font-size="12" text-anchor="end"><text transform="translate(71.9,182.9)"><tspan font-family="Arial">1200</tspan></text></g></g><g fill="none" stroke="currentColor" stroke-linecap="butt" stroke-linejoin="miter" stroke-width="1" color="gray"><path stroke="gray" stroke-dasharray="2 4" d="M80.2,138.4 L575.0,138.4" class="gridline"/></g><g fill="none" stroke="currentColor" stroke-linecap="butt" stroke-linejoin="miter" stroke-width="1" color="#000"><path stroke="gray" d="M80.2,138.4 L89.2,138.4"/><g fill="gray" stroke="none" font-family="Arial" font-size="12" text-anchor="end"><text transform="translate(71.9,142.3)"><tspan font-family="Arial">1400</tspan></text></g></g><g fill="none" stroke="currentColor" stroke-linecap="butt" stroke-linejoin="miter" stroke-width="1" color="gray"><path stroke="gray" stroke-dasharray="2 4" d="M80.2,97.8 L575.0,97.8" class="gridline"/></g><g fill="none" stroke="currentColor" stroke-linecap="butt" stroke-linejoin="miter" stroke-width="1" color="#000"><path stroke="gray" d="M80.2,97.8 L89.2,97.8"/><g fill="gray" stroke="none" font-family="Arial" font-size="12" text-anchor="end"><text transform="translate(71.9,101.7)"><tspan font-family="Arial">1600</tspan></text></g></g><g fill="none" stroke="currentColor" stroke-linecap="butt" stroke-linejoin="miter" stroke-width="1" color="gray"><path stroke="gray" stroke-dasharray="2 4" d="M80.2,57.3 L391.7,57.3 M566.7,57.3 L575.0,57.3" class="gridline"/></g><g fill="none" stroke="currentColor" stroke-linecap="butt" stroke-linejoin="miter" stroke-width="1" color="#000"><path stroke="gray" d="M80.2,57.3 L89.2,57.3"/><g fill="gray" stroke="none" font-family="Arial" font-size="12" text-anchor="end"><text transform="translate(71.9,61.2)"><tspan font-family="Arial">1800</tspan></text></g></g><g fill="none" stroke="currentColor" stroke-linecap="butt" stroke-linejoin="miter" stroke-width="1" color="gray"><path stroke="gray" stroke-dasharray="2 4" d="M80.2,16.7 L575.0,16.7" class="gridline"/></g><g fill="none" stroke="currentColor" stroke-linecap="butt" stroke-linejoin="miter" stroke-width="1" color="#000"><path stroke="gray" d="M80.2,16.7 L89.2,16.7"/><g fill="gray" stroke="none" font-family="Arial" font-size="12" text-anchor="end"><text transform="translate(71.9,20.6)"><tspan font-family="Arial">2000</tspan></text></g></g><g fill="none" stroke="currentColor" stroke-linecap="butt" stroke-linejoin="miter" stroke-width="1" color="gray"><path stroke="gray" stroke-dasharray="2 4" d="M80.2,422.4 L80.2,16.7" class="gridline"/></g><g fill="none" stroke="currentColor" stroke-linecap="butt" stroke-linejoin="miter" stroke-width="1" color="#000"><path stroke="gray" d="M80.2,422.4 L80.2,413.4"/><g fill="gray" stroke="none" font-family="Arial" font-size="12" text-anchor="middle"><text transform="translate(80.2,444.3)"><tspan font-family="Arial">1998-01</tspan></text></g></g><g fill="none" stroke="currentColor" stroke-linecap="butt" stroke-linejoin="miter" stroke-width="1" color="#000"><path stroke="gray" d="M86.3,422.4 L86.3,417.9 M92.5,422.4 L92.5,417.9 M98.8,422.4 L98.8,417.9 M104.9,422.4 L104.9,417.9 M111.1,422.4 L111.1,417.9 M117.2,422.4 L117.2,417.9 M123.4,422.4 L123.4,417.9"/></g><g fill="none" stroke="currentColor" stroke-linecap="butt" stroke-linejoin="miter" stroke-width="1" color="gray"><path stroke="gray" stroke-dasharray="2 4" d="M129.7,422.4 L129.7,16.7" class="gridline"/></g><g fill="none" stroke="currentColor" stroke-linecap="butt" stroke-linejoin="miter" stroke-width="1" color="#000"><path stroke="gray" d="M129.7,422.4 L129.7,413.4"/><g fill="gray" stroke="none" font-family="Arial" font-size="12" text-anchor="middle"><text transform="translate(129.7,444.3)"><tspan font-family="Arial">2000-01</tspan></text></g></g><g fill="none" stroke="currentColor" stroke-linecap="butt" stroke-linejoin="miter" stroke-width="1" color="#000"><path stroke="gray" d="M135.9,422.4 L135.9,417.9 M142.0,422.4 L142.0,417.9 M148.2,422.4 L148.2,417.9 M154.5,422.4 L154.5,417.9 M160.5,422.4 L160.5,417.9 M166.7,422.4 L166.7,417.9 M173.0,422.4 L173.0,417.9"/></g><g fill="none" stroke="currentColor" stroke-linecap="butt" stroke-linejoin="miter" stroke-width="1" color="gray"><path stroke="gray" stroke-dasharray="2 4" d="M179.2,422.4 L179.2,16.7" class="gridline"/></g><g fill="none" stroke="currentColor" stroke-linecap="butt" stroke-linejoin="miter" stroke-width="1" color="#000"><path stroke="gray" d="M179.2,422.4 L179.2,413.4"/><g fill="gray" stroke="none" font-family="Arial" font-size="12" text-anchor="middle"><text transform="translate(179.2,444.3)"><tspan font-family="Arial">2002-01</tspan></text></g></g><g fill="none" stroke="currentColor" stroke-linecap="butt" stroke-linejoin="miter" stroke-width="1" color="#000"><path stroke="gray" d="M185.3,422.4 L185.3,417.9 M191.5,422.4 L191.5,417.9 M197.7,422.4 L197.7,417.9 M203.9,422.4 L203.9,417.9 M210.0,422.4 L210.0,417.9 M216.2,422.4 L216.2,417.9 M222.4,422.4 L222.4,417.9"/></g><g fill="none" stroke="currentColor" stroke-linecap="butt" stroke-linejoin="miter" stroke-width="1" color="gray"><path stroke="gray" stroke-dasharray="2 4" d="M228.6,422.4 L228.6,16.7" class="gridline"/></g><g fill="none" stroke="currentColor" stroke-linecap="butt" stroke-linejoin="miter" stroke-width="1" color="#000"><path stroke="gray" d="M228.6,422.4 L228.6,413.4"/><g fill="gray" stroke="none" font-family="Arial" font-size="12" text-anchor="middle"><text transform="translate(228.6,444.3)"><tspan font-family="Arial">2004-01</tspan></text></g></g><g fill="none" stroke="currentColor" stroke-linecap="butt" stroke-linejoin="miter" stroke-width="1" color="#000"><path stroke="gray" d="M234.8,422.4 L234.8,417.9 M240.9,422.4 L240.9,417.9 M247.2,422.4 L247.2,417.9 M253.4,422.4 L253.4,417.9 M259.5,422.4 L259.5,417.9 M265.7,422.4 L265.7,417.9 M271.9,422.4 L271.9,417.9"/></g><g fill="none" stroke="currentColor" stroke-linecap="butt" stroke-linejoin="miter" stroke-width="1" color="gray"><path stroke="gray" stroke-dasharray="2 4" d="M278.1,422.4 L278.1,16.7" class="gridline"/></g><g fill="none" stroke="currentColor" stroke-linecap="butt" stroke-linejoin="miter" stroke-width="1" color="#000"><path stroke="gray" d="M278.1,422.4 L278.1,413.4"/><g fill="gray" stroke="none" font-family="Arial" font-size="12" text-anchor="middle"><text transform="translate(278.1,444.3)"><tspan font-family="Arial">2006-01</tspan></text></g></g><g fill="none" stroke="currentColor" stroke-linecap="butt" stroke-linejoin="miter" stroke-width="1" color="#000"><path stroke="gray" d="M284.2,422.4 L284.2,417.9 M290.4,422.4 L290.4,417.9 M296.7,422.4 L296.7,417.9 M302.9,422.4 L302.9,417.9 M309.0,422.4 L309.0,417.9 M315.2,422.4 L315.2,417.9 M321.3,422.4 L321.3,417.9"/></g><g fill="none" stroke="currentColor" stroke-linecap="butt" stroke-linejoin="miter" stroke-width="1" color="gray"><path stroke="gray" stroke-dasharray="2 4" d="M327.6,422.4 L327.6,16.7" class="gridline"/></g><g fill="none" stroke="currentColor" stroke-linecap="butt" stroke-linejoin="miter" stroke-width="1" color="#000"><path stroke="gray" d="M327.6,422.4 L327.6,413.4"/><g fill="gray" stroke="none" font-family="Arial" font-size="12" text-anchor="middle"><text transform="translate(327.6,444.3)"><tspan font-family="Arial">2008-01</tspan></text></g></g><g fill="none" stroke="currentColor" stroke-linecap="butt" stroke-linejoin="miter" stroke-width="1" color="#000"><path stroke="gray" d="M333.8,422.4 L333.8,417.9 M339.9,422.4 L339.9,417.9 M346.2,422.4 L346.2,417.9 M352.4,422.4 L352.4,417.9 M358.5,422.4 L358.5,417.9 M364.6,422.4 L364.6,417.9 M370.9,422.4 L370.9,417.9"/></g><g fill="none" stroke="currentColor" stroke-linecap="butt" stroke-linejoin="miter" stroke-width="1" color="gray"><path stroke="gray" stroke-dasharray="2 4" d="M377.1,422.4 L377.1,16.7" class="gridline"/></g><g fill="none" stroke="currentColor" stroke-linecap="butt" stroke-linejoin="miter" stroke-width="1" color="#000"><path stroke="gray" d="M377.1,422.4 L377.1,413.4"/><g fill="gray" stroke="none" font-family="Arial" font-size="12" text-anchor="middle"><text transform="translate(377.1,444.3)"><tspan font-family="Arial">2010-01</tspan></text></g></g><g fill="none" stroke="currentColor" stroke-linecap="butt" stroke-linejoin="miter" stroke-width="1" color="#000"><path stroke="gray" d="M383.2,422.4 L383.2,417.9 M389.4,422.4 L389.4,417.9 M395.6,422.4 L395.6,417.9 M401.8,422.4 L401.8,417.9 M407.9,422.4 L407.9,417.9 M414.1,422.4 L414.1,417.9 M420.3,422.4 L420.3,417.9"/></g><g fill="none" stroke="currentColor" stroke-linecap="butt" stroke-linejoin="miter" stroke-width="1" color="gray"><path stroke="gray" stroke-dasharray="2 4" d="M426.6,422.4 L426.6,61.7 M426.6,25.7 L426.6,16.7" class="gridline"/></g><g fill="none" stroke="currentColor" stroke-linecap="butt" stroke-linejoin="miter" stroke-width="1" color="#000"><path stroke="gray" d="M426.6,422.4 L426.6,413.4"/><g fill="gray" stroke="none" font-family="Arial" font-size="12" text-anchor="middle"><text transform="translate(426.6,444.3)"><tspan font-family="Arial">2012-01</tspan></text></g></g><g fill="none" stroke="currentColor" stroke-linecap="butt" stroke-linejoin="miter" stroke-width="1" color="#000"><path stroke="gray" d="M432.7,422.4 L432.7,417.9 M438.9,422.4 L438.9,417.9 M445.1,422.4 L445.1,417.9 M451.4,422.4 L451.4,417.9 M457.4,422.4 L457.4,417.9 M463.6,422.4 L463.6,417.9 M469.9,422.4 L469.9,417.9"/></g><g fill="none" stroke="currentColor" stroke-linecap="butt" stroke-linejoin="miter" stroke-width="1" color="gray"><path stroke="gray" stroke-dasharray="2 4" d="M476.0,422.4 L476.0,61.7 M476.0,25.7 L476.0,16.7" class="gridline"/></g><g fill="none" stroke="currentColor" stroke-linecap="butt" stroke-linejoin="miter" stroke-width="1" color="#000"><path stroke="gray" d="M476.0,422.4 L476.0,413.4"/><g fill="gray" stroke="none" font-family="Arial" font-size="12" text-anchor="middle"><text transform="translate(476.0,444.3)"><tspan font-family="Arial">2014-01</tspan></text></g></g><g fill="none" stroke="currentColor" stroke-linecap="butt" stroke-linejoin="miter" stroke-width="1" color="#000"><path stroke="gray" d="M482.2,422.4 L482.2,417.9 M488.3,422.4 L488.3,417.9 M494.6,422.4 L494.6,417.9 M500.8,422.4 L500.8,417.9 M506.9,422.4 L506.9,417.9 M513.1,422.4 L513.1,417.9 M519.3,422.4 L519.3,417.9"/></g><g fill="none" stroke="currentColor" stroke-linecap="butt" stroke-linejoin="miter" stroke-width="1" color="gray"><path stroke="gray" stroke-dasharray="2 4" d="M525.5,422.4 L525.5,61.7 M525.5,25.7 L525.5,16.7" class="gridline"/></g><g fill="none" stroke="currentColor" stroke-linecap="butt" stroke-linejoin="miter" stroke-width="1" color="#000"><path stroke="gray" d="M525.5,422.4 L525.5,413.4"/><g fill="gray" stroke="none" font-family="Arial" font-size="12" text-anchor="middle"><text transform="translate(525.5,444.3)"><tspan font-family="Arial">2016-01</tspan></text></g></g><g fill="none" stroke="currentColor" stroke-linecap="butt" stroke-linejoin="miter" stroke-width="1" color="#000"><path stroke="gray" d="M531.7,422.4 L531.7,417.9 M537.8,422.4 L537.8,417.9 M544.1,422.4 L544.1,417.9 M550.3,422.4 L550.3,417.9 M556.4,422.4 L556.4,417.9 M562.6,422.4 L562.6,417.9 M568.8,422.4 L568.8,417.9"/></g><g fill="none" stroke="currentColor" stroke-linecap="butt" stroke-linejoin="miter" stroke-width="1" color="gray"><path stroke="gray" stroke-dasharray="2 4" d="M575.0,422.4 L575.0,16.7" class="gridline"/></g><g fill="none" stroke="currentColor" stroke-linecap="butt" stroke-linejoin="miter" stroke-width="1" color="#000"><path stroke="gray" d="M575.0,422.4 L575.0,413.4"/><g fill="gray" stroke="none" font-family="Arial" font-size="12" text-anchor="middle"><text transform="translate(575.0,444.3)"><tspan font-family="Arial">2018-01</tspan></text></g></g><g fill="none" stroke="currentColor" stroke-linecap="butt" stroke-linejoin="miter" stroke-width="1" color="#000"><path stroke="gray" d="M80.2,16.7 L80.2,422.4 L575.0,422.4 M575.0,16.7 M80.2,16.7"/></g><g fill="none" stroke="currentColor" stroke-linecap="butt" stroke-linejoin="miter" stroke-width="1" color="#000"><g fill="#000" stroke="none" font-family="Arial" font-size="12" text-anchor="middle"><text transform="translate(17.0,219.6) rotate(270)"><tspan font-family="Arial">Messages</tspan></text></g></g><g fill="none" stroke="currentColor" stroke-linecap="butt" stroke-linejoin="miter" stroke-width="1" color="#000"><g fill="#000" stroke="none" font-family="Arial" font-size="12" text-anchor="middle"><text transform="translate(327.6,471.3)"><tspan font-family="Arial">Date</tspan></text></g></g><g id="gnuplot_plot_1"><title>Mulberry</title><g fill="none" stroke="currentColor" stroke-linecap="butt" stroke-linejoin="miter" stroke-width="1" color="#000"><g fill="#000" stroke="none" font-family="Arial" font-size="12" text-anchor="end"><text transform="translate(507.9,38.6)"><tspan font-family="Arial">Mulberry</tspan></text></g></g><g fill="none" stroke="currentColor" stroke-linecap="butt" stroke-linejoin="miter" stroke-width="1" color="#000"><path stroke="#EA3C00" d="M516.2,34.7 L558.4,34.7 M82.3,402.7 L84.2,407.4 L86.3,404.5 L88.3,397.7 L90.4,399.9 L92.5,401.7 L94.6,393.8 L96.7,380.4 L98.7,394.8 L100.8,373.1 L102.8,339.8 L104.9,329.5 L107.0,293.6 L108.9,322.4 L111.0,244.7 L113.1,300.9 L115.2,307.2 L117.2,297.4 L119.3,296.0 L121.4,306.4 L123.4,275.9 L125.5,282.6 L127.5,275.1 L129.6,333.3 L131.7,221.6 L133.7,162.3 L135.8,154.4 L137.8,163.8 L139.9,139.6 L142.0,165.4 L144.1,92.8 L146.2,196.6 L148.2,162.8 L150.3,145.7 L152.3,310.8 L154.4,115.7 L156.5,41.4 L158.4,86.1 L160.5,103.1 L162.6,110.8 L164.7,141.2 L166.7,40.2 L168.8,90.5 L170.9,134.6 L172.9,52.2 L175.0,135.8 L177.1,189.3 L179.2,70.7 L181.3,143.1 L183.2,108.6 L185.3,115.9 L187.3,94.8 L189.4,109.0 L191.4,67.8 L193.5,127.5 L195.6,178.8 L197.7,119.1 L199.8,166.0 L201.8,198.7 L203.9,131.7 L206.0,154.0 L207.9,98.0 L210.0,120.2 L212.0,166.6 L214.1,136.0 L216.1,131.3 L218.2,164.0 L220.3,162.1 L222.4,126.4 L224.5,195.6 L226.5,220.8 L228.6,172.7 L230.7,163.2 L232.7,195.8 L234.8,219.8 L236.8,220.4 L238.9,271.7 L240.9,228.9 L243.0,181.4 L245.1,204.3 L247.2,219.3 L249.3,146.7 L251.3,179.2 L253.4,149.8 L255.5,132.7 L257.4,135.0 L259.5,118.3 L261.5,129.7 L263.6,173.1 L265.7,258.1 L267.8,181.2 L269.9,187.9 L271.9,257.1 L274.0,253.8 L276.0,283.0 L278.1,246.9 L280.2,277.8 L282.1,248.6 L284.2,307.0 L286.2,277.8 L288.3,259.9 L290.4,235.6 L292.5,216.7 L294.6,256.7 L296.6,255.3 L298.7,299.1 L300.7,320.0 L302.8,261.7 L304.9,266.8 L306.8,239.0 L308.9,274.9 L311.0,238.0 L313.1,297.9 L315.1,261.9 L317.2,289.9 L319.3,268.8 L321.3,280.0 L323.4,285.1 L325.5,306.2 L327.6,296.2 L329.7,295.2 L331.6,285.5 L333.7,298.7 L335.8,291.8 L337.9,284.1 L339.9,279.8 L342.0,296.4 L344.1,318.3 L346.1,305.4 L348.2,305.6 L350.3,342.7 L352.4,336.4 L354.5,343.7 L356.4,322.2 L358.5,350.2 L360.5,348.8 L362.6,364.6 L364.6,360.3 L366.7,341.1 L368.8,350.2 L370.8,335.6 L372.9,328.7 L375.0,319.1 L377.1,326.9 L379.2,344.1 L381.1,306.8 L383.2,339.4 L385.2,366.2 L387.3,351.4 L389.3,387.9 L391.4,344.7 L393.5,365.2 L395.6,345.5 L397.7,345.5 L399.7,363.4 L401.8,357.7 L403.9,364.0 L405.8,385.9 L407.9,365.0 L409.9,388.1 L412.0,394.0 L414.1,379.2 L416.2,374.1 L418.3,361.3 L420.3,361.5 L422.4,369.9 L424.4,353.0 L426.5,385.1 L428.6,371.1 L430.6,383.5 L432.7,373.5 L434.7,372.3 L436.8,374.5 L438.9,389.9 L441.0,381.2 L443.1,353.8 L445.1,385.9 L447.2,372.7 L449.2,394.2 L451.3,386.5 L453.4,398.7 L455.3,405.4 L457.4,404.8 L459.4,400.3 L461.5,400.3 L463.6,399.1 L465.7,393.2 L467.8,400.9 L469.8,391.4 L471.9,386.7 L473.9,387.3 L476.0,376.8 L478.1,388.7 L480.0,332.1 L482.1,393.8 L484.2,391.4 L486.3,393.0 L488.3,402.1 L490.4,381.8 L492.5,395.0 L494.5,394.6 L496.6,394.2 L498.7,408.8 L500.8,401.9 L502.9,408.4 L504.8,404.5 L506.9,412.5 L508.9,414.9 L511.0,403.3 L513.0,416.1 L515.1,415.5 L517.2,413.5 L519.3,414.3 L521.4,408.6 L523.4,417.5 L525.5,410.6 L527.6,414.7 L529.6,409.6 L531.6,408.2 L533.7,413.5 L535.8,401.5 L537.8,407.4 L539.9,406.2 L542.0,406.2 L544.0,407.4 L546.1,417.1 L548.2,413.3 L550.3,408.2 L552.4,416.3 L554.3,412.3 L556.4,416.7"/></g></g><g id="gnuplot_plot_2"><title>Stack Overflow</title><g fill="none" stroke="currentColor" stroke-linecap="butt" stroke-linejoin="miter" stroke-width="1" color="#000"><g fill="#000" stroke="none" font-family="Arial" font-size="12" text-anchor="end"><text transform="translate(507.9,56.6)"><tspan font-family="Arial">Stack Overflow</tspan></text></g></g><g fill="none" stroke="currentColor" stroke-linecap="butt" stroke-linejoin="miter" stroke-width="1" color="#000"><path stroke="#EAD900" d="M516.2,52.7 L558.4,52.7 M342.0,409.4 L344.1,346.9 L346.1,370.7 L348.2,378.0 L350.3,375.7 L352.4,374.9 L354.5,354.2 L356.4,342.9 L358.5,366.8 L360.5,343.9 L362.6,343.1 L364.6,326.9 L366.7,352.8 L368.8,325.0 L370.8,321.4 L372.9,313.5 L375.0,332.7 L377.1,328.7 L379.2,305.2 L381.1,322.6 L383.2,325.8 L385.2,282.8 L387.3,299.3 L389.3,300.1 L391.4,271.1 L393.5,303.5 L395.6,305.6 L397.7,306.6 L399.7,287.1 L401.8,257.9 L403.9,261.7 L405.8,249.8 L407.9,243.5 L409.9,216.5 L412.0,208.4 L414.1,265.2 L416.2,243.3 L418.3,254.6 L420.3,243.9 L422.4,260.7 L424.4,234.6 L426.5,235.8 L428.6,222.2 L430.6,210.6 L432.7,214.7 L434.7,202.3 L436.8,202.7 L438.9,137.8 L441.0,165.0 L443.1,189.7 L445.1,179.2 L447.2,188.7 L449.2,233.3 L451.3,192.6 L453.4,182.6 L455.3,156.7 L457.4,151.2 L459.4,149.6 L461.5,193.2 L463.6,184.5 L465.7,160.7 L467.8,168.8 L469.8,143.5 L471.9,151.4 L473.9,233.1 L476.0,140.2 L478.1,134.2 L480.0,152.4 L482.1,215.1 L484.2,186.5 L486.3,206.6 L488.3,228.7 L490.4,236.8 L492.5,238.6 L494.5,228.5 L496.6,221.0 L498.7,187.5 L500.8,227.1 L502.9,217.5 L504.8,217.7 L506.9,222.0 L508.9,244.3 L511.0,205.4 L513.0,232.7 L515.1,254.0 L517.2,222.2 L519.3,243.3 L521.4,262.8 L523.4,272.9 L525.5,227.3 L527.6,244.1 L529.6,221.0 L531.6,250.8 L533.7,244.1 L535.8,244.9 L537.8,212.0 L539.9,225.0 L542.0,256.9 L544.0,290.5 L546.1,254.4 L548.2,258.5 L550.3,252.6 L552.4,223.4 L554.3,223.2 L556.4,231.1 L558.4,347.3"/></g></g></g></svg>